<svg width="142" height="70" viewBox="0 0 142 70" fill="none" xmlns="http://www.w3.org/2000/svg">
<path d="M0 3C0 1.34314 1.34315 0 3 0H139C140.657 0 142 1.34315 142 3V66.3688C142 68.0257 140.657 69.3688 139 69.3688H3C1.34314 69.3688 0 68.0257 0 66.3688V3Z" fill="#1085D3"/>
<g clip-path="url(#clip0)">
<path d="M78.7479 32.0597C79.6863 28.3665 77.398 25.3103 71.7924 25.3103H59.6428L55.0908 43.3732L57.7331 47.8164H66.3761C72.0393 47.8164 76.4267 45.2279 77.5544 40.7283C78.1223 38.422 77.4638 36.8093 75.9822 36.0029V35.9465C77.3872 35.0548 78.38 33.6596 78.7479 32.0597ZM71.3396 40.5831C71.1092 41.5266 70.4589 42.4943 67.7672 42.4943H62.2522L63.2152 38.6236H68.7056C71.3643 38.6156 71.5619 39.6074 71.3067 40.5831H71.3396ZM72.4427 32.1807C72.2451 32.9064 71.6771 33.7934 69.3559 33.7934H64.417L65.2402 30.6485H70.179C72.525 30.6324 72.6402 31.3743 72.4427 32.1807Z" fill="white"/>
<path d="M86.3947 39.0994H97.4577L98.7171 33.7773H87.7282L88.5843 30.6324H99.4662L100.726 25.3103H82.8634L77.2002 47.8083H97.433L98.7583 42.4862H85.5798L86.3947 39.0994Z" fill="white"/>
<path d="M102.273 25.3103L101.006 30.6324H107.616L103.278 47.8083H110.217L114.563 30.6324H121.642L123 25.3103H102.273Z" fill="white"/>
<path d="M25.2601 47.8083H18.2634L21.2926 35.7932L21.9922 33.9789L20.1402 35.7932L18.0823 37.8334L18 31.8339L25.2601 25.3103H30.9151L25.2601 47.8083Z" fill="#002F5E"/>
<path d="M50.5223 38.4866L48.2916 34.7853L59.1159 25.3103H49.0324L44.9167 29.1809L30.9562 41.7201L24.2559 47.8083H33.7961L40.9656 41.5427L43.3775 45.5746C44.2006 46.5907 45.3612 47.8244 50.2836 47.8244H56.0456L50.5306 38.4785L50.5223 38.4866Z" fill="#002F5E"/>
<path d="M44.1431 27.9385V27.8901C43.5255 27.0461 42.7014 26.3675 41.7464 25.9166C40.7915 25.4658 39.7362 25.2571 38.6775 25.3097H31.228L36.7842 34.567L44.1431 27.9385Z" fill="#002F5E"/>
</g>
<defs>
<clipPath id="clip0">
<rect width="105" height="22.498" fill="white" transform="translate(18 25.3103)"/>
</clipPath>
</defs>
</svg>
