<svg width="25" height="25" viewBox="0 0 25 25" fill="none" xmlns="http://www.w3.org/2000/svg">
<path d="M24.6285 12.4998C24.6285 19.1983 19.1983 24.6285 12.4998 24.6285C8.96862 24.6285 5.78991 23.1196 3.57357 20.7112C2.99139 20.079 2.47604 19.3845 2.03743 18.6394C0.978519 16.8384 0.371094 14.7399 0.371094 12.4998C0.371094 5.80129 5.80129 0.371094 12.4998 0.371094C14.7404 0.371094 16.8389 0.978519 18.6394 2.03793C19.3845 2.47604 20.0785 2.99139 20.7107 3.57406C23.1191 5.78941 24.6285 8.96862 24.6285 12.4998Z" fill="#F0CD00"/>
<path d="M24.6284 12.4997C24.6284 19.0472 19.4408 24.3829 12.9512 24.62C6.46155 24.3829 1.27393 19.0472 1.27393 12.4997C1.27393 5.95217 6.46155 0.616523 12.9512 0.379395C19.4408 0.616523 24.6284 5.95217 24.6284 12.4997Z" fill="#FFDE50"/>
<path d="M20.7104 3.57398L3.57325 20.7111C2.99107 20.0789 2.47572 19.3844 2.03711 18.6393L18.6391 2.03784C19.3841 2.47596 20.0782 2.99131 20.7104 3.57398Z" fill="#FFEA94"/>
<path d="M23.7922 8.06567L8.06542 23.7924C6.95205 23.3548 5.91889 22.7573 4.99463 22.028L22.0283 4.99438C22.7575 5.91864 23.355 6.95181 23.7922 8.06567Z" fill="#FFEA94"/>
<path d="M21.9247 12.4997C21.9247 17.7047 17.7049 21.9245 12.4999 21.9245C10.6871 21.9245 8.99401 21.4126 7.55688 20.5254C6.93064 20.1393 6.35341 19.6814 5.83559 19.1636C5.4549 18.7834 5.10638 18.37 4.795 17.9289C4.36628 17.3215 4.00737 16.6611 3.73064 15.9596C3.32074 14.9225 3.09005 13.7948 3.07619 12.6155C3.0752 12.5769 3.0752 12.5383 3.0752 12.4997C3.0752 7.29475 7.2945 3.07495 12.4999 3.07495C12.5386 3.07495 12.5777 3.07495 12.6163 3.07594C13.7955 3.0898 14.9227 3.32099 15.9598 3.7304C16.6613 4.00762 17.3217 4.36604 17.9292 4.79475C18.3702 5.10663 18.7831 5.45465 19.1638 5.83535C19.6816 6.35267 20.1395 6.9304 20.5257 7.55663C21.4128 8.99376 21.9247 10.6868 21.9247 12.4997Z" fill="#FAA300"/>
<path d="M19.1638 5.83535L5.83559 19.1636C5.4549 18.7834 5.10638 18.37 4.795 17.9289C4.36628 17.3215 4.00737 16.6611 3.73064 15.9596C3.32074 14.9225 3.09005 13.7948 3.07619 12.6155C3.0752 12.5769 3.0752 12.5383 3.0752 12.4997C3.0752 7.29475 7.2945 3.07495 12.4999 3.07495C12.5386 3.07495 12.5777 3.07495 12.6163 3.07594C13.7955 3.0898 14.9227 3.32099 15.9598 3.7304C16.6613 4.00762 17.3217 4.36604 17.9292 4.79475C18.3702 5.10663 18.7831 5.45465 19.1638 5.83535Z" fill="#FFBD00"/>
<path d="M21.9242 12.4997C21.9242 17.7047 17.7044 21.9245 12.4995 21.9245C12.3208 21.9245 12.1435 21.9195 11.9673 21.9096C16.9247 21.6339 20.8594 17.5259 20.8594 12.4997C20.8594 7.47347 16.9247 3.36555 11.9673 3.0898C12.1435 3.0799 12.3208 3.07495 12.4995 3.07495C17.7044 3.07495 21.9242 7.29475 21.9242 12.4997Z" fill="#F68E00"/>
<path d="M12.5 25C9.16114 25 6.02208 23.6998 3.66119 21.3388C1.30025 18.9779 0 15.8389 0 12.5C0 9.16114 1.30025 6.02208 3.66119 3.66119C6.02208 1.30025 9.16114 0 12.5 0C13.648 0 14.7854 0.155644 15.8806 0.462624C16.078 0.51797 16.1932 0.722871 16.1379 0.920346C16.0825 1.11777 15.8778 1.23302 15.6801 1.17767C14.6502 0.88896 13.5802 0.742574 12.5 0.742574C9.3595 0.742574 6.40693 1.96554 4.18624 4.18624C1.96554 6.40693 0.742574 9.3595 0.742574 12.5C0.742574 15.6405 1.96554 18.5931 4.18629 20.8138C6.40693 23.0345 9.3595 24.2574 12.5 24.2574C15.6405 24.2574 18.5931 23.0345 20.8138 20.8138C23.0345 18.5931 24.2574 15.6405 24.2574 12.5C24.2574 10.1253 23.553 7.83738 22.2204 5.88351C20.919 3.9754 19.1066 2.50307 16.9792 1.62579C16.7897 1.54762 16.6994 1.33059 16.7775 1.14099C16.8556 0.951436 17.0727 0.861089 17.2623 0.939307C19.5241 1.87198 21.4506 3.43698 22.8339 5.4651C24.2509 7.54277 25 9.97545 25 12.5C25 15.8389 23.6998 18.9779 21.3388 21.3388C18.9779 23.6998 15.8389 25 12.5 25Z" fill="black"/>
<path d="M12.5001 22.296C7.09861 22.296 2.7041 17.9015 2.7041 12.5C2.7041 7.09856 7.09861 2.7041 12.5001 2.7041C17.9016 2.7041 22.296 7.09856 22.296 12.5C22.296 17.9015 17.9016 22.296 12.5001 22.296ZM12.5001 3.44668C7.50801 3.44668 3.44668 7.50801 3.44668 12.5C3.44668 17.4921 7.50801 21.5534 12.5001 21.5534C17.4921 21.5534 21.5535 17.4921 21.5535 12.5C21.5535 7.50801 17.4921 3.44668 12.5001 3.44668Z" fill="black"/>
<path d="M16.7834 14.8795C16.7834 13.6225 16.1338 12.5151 15.1531 11.8733C15.5561 11.318 15.7946 10.6359 15.7946 9.89891C15.7946 8.62608 15.0851 7.51608 14.0409 6.94297V5.72252C14.0409 5.17569 13.5977 4.73242 13.0508 4.73242C12.504 4.73242 12.0607 5.17569 12.0607 5.72252V6.52925H10.8658V5.72252C10.8658 5.17569 10.4225 4.73242 9.8757 4.73242C9.32886 4.73242 8.8856 5.17569 8.8856 5.72252V6.52925H7.72203C7.1752 6.52925 6.73193 6.97252 6.73193 7.51935C6.73193 8.06618 7.1752 8.50945 7.72203 8.50945H8.06372V12.2785V16.4904H7.72203C7.1752 16.4904 6.73193 16.9337 6.73193 17.4805C6.73193 18.0274 7.1752 18.4706 7.72203 18.4706H8.8856V19.2774C8.8856 19.8242 9.32886 20.2675 9.8757 20.2675C10.4225 20.2675 10.8658 19.8242 10.8658 19.2774V18.4706H12.0607V19.2774C12.0607 19.8242 12.504 20.2675 13.0508 20.2675C13.5977 20.2675 14.0409 19.8242 14.0409 19.2774V18.3685C15.6127 17.986 16.7834 16.5673 16.7834 14.8795ZM10.044 8.50945H12.425C13.1911 8.50945 13.8144 9.13277 13.8144 9.89891C13.8144 10.665 13.1911 11.2884 12.425 11.2884H10.044V8.50945ZM13.1923 16.4904H10.0439V13.2686H12.4249H13.1923C14.0805 13.2686 14.8032 13.9913 14.8032 14.8795C14.8032 15.7678 14.0805 16.4904 13.1923 16.4904Z" fill="#F68E00"/>
<path d="M18.0207 14.8795C18.0207 13.6225 17.3711 12.5151 16.3904 11.8733C16.7934 11.318 17.0319 10.6359 17.0319 9.89891C17.0319 8.62608 16.3224 7.51608 15.2783 6.94297V5.72252C15.2783 5.17569 14.835 4.73242 14.2882 4.73242C13.7413 4.73242 13.2981 5.17569 13.2981 5.72252V6.52925H12.1031V5.72252C12.1031 5.17569 11.6598 4.73242 11.113 4.73242C10.5662 4.73242 10.1229 5.17569 10.1229 5.72252V6.52925H8.95934C8.41251 6.52925 7.96924 6.97252 7.96924 7.51935C7.96924 8.06618 8.41251 8.50945 8.95934 8.50945H9.30102V12.2785V16.4904H8.95934C8.41251 16.4904 7.96924 16.9337 7.96924 17.4805C7.96924 18.0274 8.41251 18.4706 8.95934 18.4706H10.1229V19.2774C10.1229 19.8242 10.5662 20.2675 11.113 20.2675C11.6598 20.2675 12.1031 19.8242 12.1031 19.2774V18.4706H13.2981V19.2774C13.2981 19.8242 13.7413 20.2675 14.2882 20.2675C14.835 20.2675 15.2783 19.8242 15.2783 19.2774V18.3685C16.8501 17.986 18.0207 16.5673 18.0207 14.8795ZM11.2813 8.50945H13.6623C14.4284 8.50945 15.0517 9.13277 15.0517 9.89891C15.0517 10.665 14.4284 11.2884 13.6623 11.2884H11.2813V8.50945ZM14.4296 16.4904H11.2813V13.2686H13.6623H14.4296C15.3179 13.2686 16.0405 13.9913 16.0405 14.8795C16.0405 15.7678 15.3179 16.4904 14.4296 16.4904Z" fill="#FFEA94"/>
<path d="M14.2883 20.6387C13.5377 20.6387 12.927 20.028 12.927 19.2773V18.8419H12.4746V19.2773C12.4746 20.028 11.8638 20.6387 11.1132 20.6387C10.3626 20.6387 9.75181 20.028 9.75181 19.2773V18.8419H8.95953C8.20889 18.8419 7.59814 18.2312 7.59814 17.4805C7.59814 16.7397 8.1929 16.1352 8.92993 16.1194V15.7265C8.92993 15.5214 9.09612 15.3552 9.30122 15.3552C9.50631 15.3552 9.6725 15.5214 9.6725 15.7265V16.4903C9.6725 16.6954 9.50631 16.8616 9.30122 16.8616H8.95953C8.61829 16.8616 8.34072 17.1392 8.34072 17.4804C8.34072 17.8217 8.61829 18.0993 8.95953 18.0993H10.1231C10.3282 18.0993 10.4944 18.2655 10.4944 18.4705V19.2773C10.4944 19.6185 10.772 19.8961 11.1132 19.8961C11.4544 19.8961 11.732 19.6185 11.732 19.2773V18.4705C11.732 18.2655 11.8982 18.0993 12.1033 18.0993H13.2982C13.5033 18.0993 13.6695 18.2655 13.6695 18.4705V19.2773C13.6695 19.6185 13.9471 19.8961 14.2883 19.8961C14.6296 19.8961 14.9072 19.6185 14.9072 19.2773V18.3684C14.9072 18.1971 15.0243 18.0481 15.1907 18.0076C16.6385 17.6553 17.6496 16.369 17.6496 14.8795C17.6496 13.7909 17.103 12.7832 16.1873 12.1839C16.1023 12.1282 16.0438 12.0402 16.0254 11.9403C16.0071 11.8404 16.0305 11.7373 16.0901 11.6551C16.4635 11.1406 16.6608 10.5333 16.6608 9.89886C16.6608 8.80485 16.0627 7.79693 15.0998 7.26841C14.981 7.20321 14.9072 7.07846 14.9072 6.94292V5.72247C14.9072 5.38123 14.6296 5.10366 14.2883 5.10366C13.9471 5.10366 13.6695 5.38123 13.6695 5.72247V6.5292C13.6695 6.73425 13.5033 6.90049 13.2982 6.90049H12.1033C11.8982 6.90049 11.732 6.73425 11.732 6.5292V5.72247C11.732 5.38123 11.4544 5.10366 11.1132 5.10366C10.772 5.10366 10.4944 5.38123 10.4944 5.72247V6.5292C10.4944 6.73425 10.3282 6.90049 10.1231 6.90049H8.95953C8.61829 6.90049 8.34072 7.17806 8.34072 7.5193C8.34072 7.86054 8.61829 8.13811 8.95953 8.13811H9.30122C9.50631 8.13811 9.6725 8.30435 9.6725 8.5094V14.2413C9.6725 14.4463 9.50631 14.6126 9.30122 14.6126C9.09612 14.6126 8.92993 14.4463 8.92993 14.2413V8.88039C8.19285 8.8646 7.59814 8.26009 7.59814 7.5193C7.59814 6.76861 8.20889 6.15792 8.95953 6.15792H9.75181V5.72247C9.75181 4.97178 10.3626 4.36108 11.1132 4.36108C11.8638 4.36108 12.4746 4.97178 12.4746 5.72247V6.15792H12.927V5.72247C12.927 4.97178 13.5377 4.36108 14.2883 4.36108C15.039 4.36108 15.6497 4.97178 15.6497 5.72247V6.73074C16.7369 7.4141 17.4034 8.60836 17.4034 9.89891C17.4034 10.5664 17.2285 11.2097 16.8947 11.7798C17.8386 12.5299 18.3922 13.6635 18.3922 14.8795C18.3922 16.6138 17.2785 18.1242 15.6498 18.6491V19.2773C15.6497 20.028 15.039 20.6387 14.2883 20.6387ZM14.4298 16.8617H11.2814C11.0763 16.8617 10.9101 16.6954 10.9101 16.4904V13.2686C10.9101 13.0635 11.0763 12.8973 11.2814 12.8973H14.4298C15.5228 12.8973 16.412 13.7865 16.412 14.8795C16.412 15.9725 15.5228 16.8617 14.4298 16.8617ZM11.6528 16.1191H14.4298C15.1133 16.1191 15.6694 15.563 15.6694 14.8795C15.6694 14.1959 15.1133 13.6398 14.4298 13.6398H11.6528V16.1191ZM13.6624 11.6596H11.2814C11.0763 11.6596 10.9101 11.4934 10.9101 11.2884V8.5094C10.9101 8.30435 11.0763 8.13811 11.2814 8.13811H13.6624C14.6333 8.13811 15.4232 8.92801 15.4232 9.89886C15.4232 10.8697 14.6333 11.6596 13.6624 11.6596ZM11.6528 10.9171H13.6625C14.2239 10.9171 14.6806 10.4603 14.6806 9.89891C14.6806 9.33752 14.2238 8.88074 13.6625 8.88074H11.6528V10.9171Z" fill="black"/>
</svg>
