<svg width="30" height="22" viewBox="0 0 30 22" fill="none" xmlns="http://www.w3.org/2000/svg">
<path d="M27.7532 1.64673H2.24678C1.00588 1.64673 0 2.59751 0 3.77045V18.1017C0 19.2746 1.00588 20.2254 2.24678 20.2254H27.7532C28.9941 20.2254 30 19.2746 30 18.1017V3.77045C30 2.59751 28.9941 1.64673 27.7532 1.64673Z" fill="#41479B"/>
<path d="M29.9689 3.41918C29.7918 2.41345 28.8675 1.64648 27.7532 1.64648H27.1686L17.5862 7.58077V1.64654H12.4138V7.58082L2.83137 1.64654H2.24678C1.1325 1.64654 0.208184 2.41345 0.0311133 3.41923L8.22123 8.49134H0V13.3805H8.22123L0.0311133 18.4525C0.208184 19.4582 1.1325 20.2252 2.24678 20.2252H2.83137L12.4138 14.2909V20.2252H17.5862V14.2909L27.1686 20.2252H27.7532C28.8675 20.2252 29.7918 19.4582 29.9689 18.4525L21.7788 13.3804H30V8.49123H21.7788L29.9689 3.41918Z" fill="#F5F5F5"/>
<path d="M16.5517 1.64673H13.4483V9.46929H0V12.4028H13.4483V20.2253H16.5517V12.4028H30V9.46929H16.5517V1.64673Z" fill="#FF4B55"/>
<path d="M1.45326 20.0885L12.3859 13.3806H10.4858L0.541016 19.4824C0.784355 19.7509 1.09707 19.9612 1.45326 20.0885Z" fill="#FF4B55"/>
<path d="M20.2961 13.3806H18.396L28.9848 19.8775C29.2811 19.6936 29.5284 19.4451 29.7047 19.1533L20.2961 13.3806Z" fill="#FF4B55"/>
<path d="M0.237305 2.82097L9.4793 8.49163H11.3794L0.906797 2.06592C0.625605 2.26375 0.395508 2.5224 0.237305 2.82097Z" fill="#FF4B55"/>
<path d="M19.486 8.49164L29.449 2.37858C29.203 2.11101 28.8878 1.90188 28.5291 1.7771L17.5859 8.49164H19.486Z" fill="#FF4B55"/>
</svg>
