<svg width="264" height="27" viewBox="0 0 264 27" fill="none" xmlns="http://www.w3.org/2000/svg">
<path d="M4.9687 5.11799V10.7756H11.0866C12.1795 10.7756 13.064 10.5667 13.74 10.1489C14.4272 9.71954 14.7709 8.96518 14.7709 7.88588C14.7709 6.69052 14.3202 5.90135 13.4189 5.51838C12.6414 5.25145 11.65 5.11799 10.4444 5.11799H4.9687ZM4.9687 15.0232V21.8646H11.0866C12.1795 21.8646 13.0302 21.7137 13.6386 21.412C14.7427 20.8549 15.2948 19.7872 15.2948 18.2089C15.2948 16.8743 14.7596 15.9574 13.6893 15.4584C13.0921 15.1799 12.2527 15.0348 11.1711 15.0232H4.9687ZM12.1006 0.661509C15.154 0.70793 17.3172 1.61896 18.5904 3.39458C19.3565 4.48549 19.7396 5.7911 19.7396 7.31141C19.7396 8.87814 19.3565 10.1373 18.5904 11.089C18.1622 11.6228 17.5313 12.1103 16.6975 12.5513C17.9707 13.0271 18.9284 13.7814 19.5706 14.8143C20.2241 15.8472 20.5508 17.1006 20.5508 18.5745C20.5508 20.0948 20.179 21.4584 19.4354 22.6654C18.9622 23.4662 18.3707 24.1393 17.6608 24.6847C16.8609 25.3114 15.9145 25.7408 14.8216 25.9729C13.74 26.205 12.5626 26.3211 11.2894 26.3211H0V0.661509H12.1006Z" fill="white"/>
<path d="M29.4911 5.08317H24.6069V0.504836H29.4911V5.08317ZM24.6069 7.34623H29.4911V26.3211H24.6069V7.34623Z" fill="white"/>
<path d="M32.2796 11.0542V7.52031H34.8485V2.22824H39.6144V7.52031H42.6057V11.0542H39.6144V21.0812C39.6144 21.8588 39.7101 22.3462 39.9017 22.5435C40.0932 22.7292 40.6791 22.8221 41.6593 22.8221C41.8058 22.8221 41.9579 22.8221 42.1156 22.8221C42.2846 22.8104 42.448 22.7988 42.6057 22.7872V26.4952L40.3242 26.5822C38.0483 26.6634 36.4934 26.2573 35.6597 25.3636C35.1189 24.795 34.8485 23.9188 34.8485 22.735V11.0542H32.2796Z" fill="white"/>
<path d="M62.8354 8.66925C62.4411 6.91683 61.4778 5.69246 59.9455 4.99613C59.0892 4.61315 58.1371 4.42166 57.0893 4.42166C55.0838 4.42166 53.4332 5.20503 52.1375 6.77176C50.8531 8.32689 50.2109 10.6712 50.2109 13.8046C50.2109 16.9613 50.9094 19.1954 52.3065 20.5068C53.7036 21.8182 55.2922 22.4739 57.0724 22.4739C58.8188 22.4739 60.2497 21.9574 61.3651 20.9246C62.4805 19.8801 63.1678 18.5164 63.4269 16.8337H57.6639V12.5513H68.0407V26.3211H64.593L64.0691 23.118C63.0664 24.3366 62.165 25.1954 61.3651 25.6944C59.9905 26.5648 58.3005 27 56.295 27C52.9938 27 50.2897 25.8221 48.1828 23.4662C45.9858 21.0986 44.8873 17.8607 44.8873 13.7524C44.8873 9.59768 45.9971 6.26692 48.2166 3.76015C50.4362 1.25338 53.3712 0 57.0217 0C60.1877 0 62.7284 0.829787 64.6437 2.48936C66.5704 4.13733 67.6745 6.19729 67.9562 8.66925H62.8354Z" fill="white"/>
<path d="M82.7947 17.0948C82.4905 17.2921 82.1807 17.4545 81.8652 17.5822C81.561 17.6983 81.1385 17.8085 80.5977 17.913L79.516 18.1219C78.502 18.3075 77.7753 18.5338 77.3359 18.8008C76.5923 19.2534 76.2205 19.9555 76.2205 20.9072C76.2205 21.7544 76.4458 22.3694 76.8965 22.7524C77.3584 23.1238 77.9161 23.3095 78.5696 23.3095C79.6062 23.3095 80.5582 22.9961 81.4258 22.3694C82.3046 21.7427 82.7609 20.5996 82.7947 18.94V17.0948ZM79.8709 14.7795C80.761 14.6634 81.3976 14.5184 81.7807 14.3443C82.468 14.0426 82.8116 13.5725 82.8116 12.9342C82.8116 12.1567 82.5468 11.6228 82.0173 11.3327C81.499 11.0309 80.7329 10.8801 79.7188 10.8801C78.5809 10.8801 77.7753 11.1702 77.3021 11.7505C76.9641 12.1799 76.7388 12.7602 76.6261 13.4913H71.9785C72.0799 11.8317 72.5306 10.4681 73.3305 9.40039C74.6037 7.72921 76.7895 6.89362 79.8878 6.89362C81.9046 6.89362 83.6961 7.30561 85.2621 8.12959C86.8282 8.95358 87.6113 10.5087 87.6113 12.795V21.499C87.6113 22.1025 87.6226 22.8337 87.6451 23.6925C87.6789 24.3424 87.7747 24.7834 87.9324 25.0155C88.0901 25.2476 88.3267 25.4391 88.6422 25.5899V26.3211H83.4031C83.2566 25.9381 83.1552 25.5783 83.0989 25.2418C83.0426 24.9052 82.9975 24.5222 82.9637 24.0928C82.299 24.8356 81.5328 25.4681 80.6653 25.9903C79.6287 26.6054 78.4569 26.913 77.15 26.913C75.4825 26.913 74.1023 26.4255 73.0094 25.4507C71.9278 24.4642 71.387 23.0716 71.387 21.2727C71.387 18.94 72.2602 17.2515 74.0065 16.207C74.9642 15.6383 76.3726 15.2321 78.2316 14.9884L79.8709 14.7795Z" fill="white"/>
<path d="M112.489 6.92843C113.3 6.92843 114.1 7.09091 114.888 7.41586C115.677 7.74081 116.393 8.30948 117.035 9.12186C117.553 9.78337 117.902 10.5957 118.083 11.559C118.195 12.1973 118.252 13.1315 118.252 14.3617L118.218 26.3211H113.283V14.2398C113.283 13.5203 113.17 12.9284 112.945 12.4642C112.517 11.5822 111.728 11.1412 110.579 11.1412C109.249 11.1412 108.331 11.7099 107.824 12.8472C107.565 13.4507 107.435 14.176 107.435 15.0232V26.3211H102.585V15.0232C102.585 13.8975 102.472 13.0793 102.247 12.5687C101.841 11.6518 101.047 11.1934 99.864 11.1934C98.4895 11.1934 97.5656 11.6518 97.0924 12.5687C96.8332 13.0909 96.7037 13.8685 96.7037 14.9014V26.3211H91.8195V7.38104H96.5009V10.1489C97.098 9.16248 97.6614 8.46035 98.1909 8.04255C99.1261 7.29981 100.337 6.92843 101.824 6.92843C103.233 6.92843 104.371 7.24758 105.238 7.88588C105.937 8.47776 106.466 9.23791 106.827 10.1663C107.458 9.05223 108.241 8.23404 109.176 7.7118C110.168 7.18956 111.272 6.92843 112.489 6.92843Z" fill="white"/>
<path d="M132.651 6.92843C135.073 6.92843 136.966 7.82785 138.329 9.62669C139.704 11.4255 140.391 13.7466 140.391 16.5899C140.391 19.5377 139.715 21.9807 138.363 23.9188C137.011 25.8569 135.124 26.8259 132.701 26.8259C131.18 26.8259 129.958 26.5126 129.034 25.8859C128.482 25.5145 127.885 24.8646 127.243 23.9362V26.3211H122.527V0.696325H127.327V9.81818C127.935 8.93617 128.606 8.26306 129.338 7.79884C130.206 7.21857 131.31 6.92843 132.651 6.92843ZM131.417 22.735C132.656 22.735 133.62 22.2186 134.307 21.1857C134.994 20.1528 135.338 18.795 135.338 17.1122C135.338 15.766 135.169 14.6518 134.831 13.7698C134.189 12.0986 133.006 11.2631 131.282 11.2631C129.535 11.2631 128.335 12.0812 127.682 13.7176C127.344 14.588 127.175 15.7137 127.175 17.0948C127.175 18.7195 127.524 20.0658 128.223 21.1335C128.921 22.2012 129.986 22.735 131.417 22.735Z" fill="white"/>
<path d="M148.774 26.3211H143.957V0.661509H148.774V26.3211Z" fill="white"/>
<path d="M160.756 10.9323C159.64 10.9323 158.773 11.2921 158.153 12.0116C157.545 12.7311 157.162 13.706 157.004 14.9362H164.491C164.412 13.6248 164.023 12.6325 163.325 11.9594C162.637 11.2747 161.781 10.9323 160.756 10.9323ZM160.756 6.84139C162.288 6.84139 163.668 7.13733 164.896 7.72921C166.125 8.32108 167.139 9.25532 167.939 10.5319C168.66 11.6576 169.127 12.9633 169.341 14.4487C169.465 15.3191 169.516 16.5725 169.493 18.2089H156.886C156.953 20.1122 157.534 21.4468 158.626 22.2128C159.291 22.6886 160.091 22.9265 161.026 22.9265C162.018 22.9265 162.823 22.6364 163.443 22.0561C163.781 21.7427 164.08 21.3075 164.339 20.7505H169.257C169.133 21.8762 168.564 23.0193 167.55 24.1799C165.972 26.0251 163.764 26.9478 160.925 26.9478C158.581 26.9478 156.514 26.1702 154.722 24.6151C152.931 23.06 152.035 20.53 152.035 17.0251C152.035 13.7408 152.841 11.2224 154.452 9.47002C156.075 7.7176 158.176 6.84139 160.756 6.84139Z" fill="white"/>
<path d="M182.76 6.89362C182.85 6.89362 182.923 6.89942 182.98 6.91103C183.047 6.91103 183.188 6.91683 183.402 6.92843V12.0116C183.098 11.9768 182.828 11.9536 182.591 11.942C182.355 11.9304 182.163 11.9246 182.017 11.9246C180.079 11.9246 178.777 12.5745 178.113 13.8743C177.741 14.6054 177.555 15.7311 177.555 17.2515V26.3211H172.704V7.34623H177.301V10.6538C178.045 9.38878 178.693 8.52418 179.245 8.05996C180.146 7.2824 181.318 6.89362 182.76 6.89362Z" fill="white"/>
<path d="M189.993 20.2631C190.095 21.1451 190.315 21.7718 190.653 22.1431C191.25 22.8046 192.354 23.1354 193.965 23.1354C194.911 23.1354 195.661 22.9903 196.213 22.7002C196.776 22.4101 197.058 21.9749 197.058 21.3946C197.058 20.8375 196.832 20.4139 196.382 20.1238C195.931 19.8337 194.258 19.3346 191.362 18.6267C189.278 18.0928 187.808 17.4255 186.951 16.6248C186.095 15.8356 185.667 14.6983 185.667 13.2128C185.667 11.4603 186.332 9.95745 187.661 8.70406C189.002 7.43907 190.884 6.80658 193.306 6.80658C195.604 6.80658 197.475 7.2824 198.917 8.23404C200.37 9.17408 201.204 10.8046 201.418 13.1257H196.602C196.534 12.4874 196.359 11.9826 196.078 11.6112C195.548 10.9381 194.647 10.6015 193.374 10.6015C192.326 10.6015 191.576 10.7698 191.126 11.1064C190.686 11.4429 190.467 11.8375 190.467 12.2901C190.467 12.8588 190.703 13.2708 191.176 13.5261C191.65 13.793 193.323 14.2515 196.196 14.9014C198.111 15.3656 199.548 16.0677 200.505 17.0077C201.452 17.9594 201.925 19.1489 201.925 20.5764C201.925 22.4565 201.243 23.9942 199.88 25.1896C198.528 26.3733 196.432 26.9652 193.593 26.9652C190.698 26.9652 188.557 26.3385 187.171 25.0851C185.797 23.8201 185.109 22.2128 185.109 20.2631H189.993Z" fill="white"/>
<path d="M205.423 21.1335H210.544V26.3211H205.423V21.1335Z" fill="white"/>
<path d="M225.349 6.89362C227.253 6.89362 228.808 7.41006 230.013 8.44294C231.23 9.46422 231.839 11.1644 231.839 13.5435V26.3211H226.904V14.7795C226.904 13.7814 226.774 13.0155 226.515 12.4816C226.042 11.5068 225.141 11.0193 223.811 11.0193C222.177 11.0193 221.056 11.7331 220.448 13.1605C220.132 13.9149 219.975 14.8781 219.975 16.0503V26.3211H215.175V7.38104H219.823V10.1489C220.442 9.17408 221.028 8.47195 221.58 8.04255C222.572 7.2766 223.828 6.89362 225.349 6.89362Z" fill="white"/>
<path d="M243.568 10.9323C242.452 10.9323 241.585 11.2921 240.965 12.0116C240.356 12.7311 239.973 13.706 239.816 14.9362H247.302C247.224 13.6248 246.835 12.6325 246.136 11.9594C245.449 11.2747 244.593 10.9323 243.568 10.9323ZM243.568 6.84139C245.1 6.84139 246.48 7.13733 247.708 7.72921C248.936 8.32108 249.95 9.25532 250.75 10.5319C251.471 11.6576 251.939 12.9633 252.153 14.4487C252.277 15.3191 252.328 16.5725 252.305 18.2089H239.697C239.765 20.1122 240.345 21.4468 241.438 22.2128C242.103 22.6886 242.903 22.9265 243.838 22.9265C244.829 22.9265 245.635 22.6364 246.255 22.0561C246.593 21.7427 246.891 21.3075 247.15 20.7505H252.068C251.944 21.8762 251.375 23.0193 250.361 24.1799C248.784 26.0251 246.576 26.9478 243.737 26.9478C241.393 26.9478 239.326 26.1702 237.534 24.6151C235.743 23.06 234.847 20.53 234.847 17.0251C234.847 13.7408 235.653 11.2224 237.264 9.47002C238.886 7.7176 240.987 6.84139 243.568 6.84139Z" fill="white"/>
<path d="M253.674 11.0542V7.52031H256.243V2.22824H261.009V7.52031H264V11.0542H261.009V21.0812C261.009 21.8588 261.104 22.3462 261.296 22.5435C261.487 22.7292 262.073 22.8221 263.054 22.8221C263.2 22.8221 263.352 22.8221 263.51 22.8221C263.679 22.8104 263.842 22.7988 264 22.7872V26.4952L261.718 26.5822C259.443 26.6634 257.888 26.2573 257.054 25.3636C256.513 24.795 256.243 23.9188 256.243 22.735V11.0542H253.674Z" fill="white"/>
</svg>
