<svg width="30" height="22" viewBox="0 0 30 22" fill="none" xmlns="http://www.w3.org/2000/svg">
<path d="M27.7532 1.09033H2.24678C1.00588 1.09033 0 2.10459 0 3.35583V18.6438C0 19.895 1.00588 20.9093 2.24678 20.9093H27.7532C28.9941 20.9093 30 19.8951 30 18.6438V3.35583C30 2.10459 28.9941 1.09033 27.7532 1.09033Z" fill="#41479B"/>
<path d="M29.9689 2.98137C29.7918 1.9085 28.8675 1.09033 27.7532 1.09033H27.1686L17.5862 7.42079V1.09039H12.4138V7.42085L2.83137 1.09039H2.24678C1.1325 1.09039 0.208184 1.9085 0.0311133 2.98143L8.22123 8.39216H0V13.6077H8.22123L0.0311133 19.0183C0.208184 20.0912 1.1325 20.9093 2.24678 20.9093H2.83137L12.4138 14.5789V20.9093H17.5862V14.5789L27.1686 20.9093H27.7532C28.8675 20.9093 29.7918 20.0912 29.9689 19.0183L21.7788 13.6076H30V8.39204H21.7788L29.9689 2.98137Z" fill="#F5F5F5"/>
<path d="M16.5517 1.09033H13.4483V9.43514H0V12.5645H13.4483V20.9093H16.5517V12.5645H30V9.43514H16.5517V1.09033Z" fill="#FF4B55"/>
<path d="M1.45326 20.7631L12.3859 13.6074H10.4858L0.541016 20.1166C0.784355 20.403 1.09707 20.6274 1.45326 20.7631Z" fill="#FF4B55"/>
<path d="M20.2961 13.6074H18.396L28.9848 20.538C29.2811 20.3418 29.5284 20.0768 29.7047 19.7655L20.2961 13.6074Z" fill="#FF4B55"/>
<path d="M0.237305 2.34306L9.4793 8.39229H11.3794L0.906797 1.5376C0.625605 1.74864 0.395508 2.02455 0.237305 2.34306Z" fill="#FF4B55"/>
<path d="M19.486 8.3923L29.449 1.87112C29.203 1.5857 28.8878 1.3626 28.5291 1.22949L17.5859 8.3923H19.486Z" fill="#FF4B55"/>
</svg>
