<svg width="138" height="15" viewBox="0 0 138 15" fill="none" xmlns="http://www.w3.org/2000/svg">
<path d="M2.99902 3.29492V6.15137H6.18066C6.74902 6.15137 7.20898 6.0459 7.56055 5.83496C7.91797 5.61816 8.09668 5.2373 8.09668 4.69238C8.09668 4.08887 7.8623 3.69043 7.39355 3.49707C6.98926 3.3623 6.47363 3.29492 5.84668 3.29492H2.99902ZM2.99902 8.2959V11.75H6.18066C6.74902 11.75 7.19141 11.6738 7.50781 11.5215C8.08203 11.2402 8.36914 10.7012 8.36914 9.9043C8.36914 9.23047 8.09082 8.76758 7.53418 8.51562C7.22363 8.375 6.78711 8.30176 6.22461 8.2959H2.99902ZM6.70801 1.04492C8.2959 1.06836 9.4209 1.52832 10.083 2.4248C10.4814 2.97559 10.6807 3.63477 10.6807 4.40234C10.6807 5.19336 10.4814 5.8291 10.083 6.30957C9.86035 6.5791 9.53223 6.8252 9.09863 7.04785C9.76074 7.28809 10.2588 7.66895 10.5928 8.19043C10.9326 8.71191 11.1025 9.34473 11.1025 10.0889C11.1025 10.8564 10.9092 11.5449 10.5225 12.1543C10.2764 12.5586 9.96875 12.8984 9.59961 13.1738C9.18359 13.4902 8.69141 13.707 8.12305 13.8242C7.56055 13.9414 6.94824 14 6.28613 14H0.415039V1.04492H6.70801ZM15.752 3.27734H13.2119V0.96582H15.752V3.27734ZM13.2119 4.41992H15.752V14H13.2119V4.41992ZM17.2021 6.29199V4.50781H18.5381V1.83594H21.0166V4.50781H22.5723V6.29199H21.0166V11.3545C21.0166 11.7471 21.0664 11.9932 21.166 12.0928C21.2656 12.1865 21.5703 12.2334 22.0801 12.2334C22.1562 12.2334 22.2354 12.2334 22.3174 12.2334C22.4053 12.2275 22.4902 12.2217 22.5723 12.2158V14.0879L21.3857 14.1318C20.2021 14.1729 19.3936 13.9678 18.96 13.5166C18.6787 13.2295 18.5381 12.7871 18.5381 12.1895V6.29199H17.2021Z" fill="#FFCF24"/>
<path d="M33.0928 5.08789C32.8877 4.20312 32.3867 3.58496 31.5898 3.2334C31.1445 3.04004 30.6494 2.94336 30.1045 2.94336C29.0615 2.94336 28.2031 3.33887 27.5293 4.12988C26.8613 4.91504 26.5273 6.09863 26.5273 7.68066C26.5273 9.27441 26.8906 10.4023 27.6172 11.0645C28.3438 11.7266 29.1699 12.0576 30.0957 12.0576C31.0039 12.0576 31.748 11.7969 32.3281 11.2754C32.9082 10.748 33.2656 10.0596 33.4004 9.20996H30.4033V7.04785H35.7998V14H34.0068L33.7344 12.3828C33.2129 12.998 32.7441 13.4316 32.3281 13.6836C31.6133 14.123 30.7344 14.3428 29.6914 14.3428C27.9746 14.3428 26.5684 13.748 25.4727 12.5586C24.3301 11.3633 23.7588 9.72852 23.7588 7.6543C23.7588 5.55664 24.3359 3.875 25.4902 2.60938C26.6445 1.34375 28.1709 0.710938 30.0693 0.710938C31.7158 0.710938 33.0371 1.12988 34.0332 1.96777C35.0352 2.7998 35.6094 3.83984 35.7559 5.08789H33.0928ZM43.4727 9.3418C43.3145 9.44141 43.1533 9.52344 42.9893 9.58789C42.8311 9.64648 42.6113 9.70215 42.3301 9.75488L41.7676 9.86035C41.2402 9.9541 40.8623 10.0684 40.6338 10.2031C40.2471 10.4316 40.0537 10.7861 40.0537 11.2666C40.0537 11.6943 40.1709 12.0049 40.4053 12.1982C40.6455 12.3857 40.9355 12.4795 41.2754 12.4795C41.8145 12.4795 42.3096 12.3213 42.7607 12.0049C43.2178 11.6885 43.4551 11.1113 43.4727 10.2734V9.3418ZM41.9521 8.17285C42.415 8.11426 42.7461 8.04102 42.9453 7.95312C43.3027 7.80078 43.4814 7.56348 43.4814 7.24121C43.4814 6.84863 43.3438 6.5791 43.0684 6.43262C42.7988 6.28027 42.4004 6.2041 41.873 6.2041C41.2812 6.2041 40.8623 6.35059 40.6162 6.64355C40.4404 6.86035 40.3232 7.15332 40.2646 7.52246H37.8477C37.9004 6.68457 38.1348 5.99609 38.5508 5.45703C39.2129 4.61328 40.3496 4.19141 41.9609 4.19141C43.0098 4.19141 43.9414 4.39941 44.7559 4.81543C45.5703 5.23145 45.9775 6.0166 45.9775 7.1709V11.5654C45.9775 11.8701 45.9834 12.2393 45.9951 12.6729C46.0127 13.001 46.0625 13.2236 46.1445 13.3408C46.2266 13.458 46.3496 13.5547 46.5137 13.6309V14H43.7891C43.7129 13.8066 43.6602 13.625 43.6309 13.4551C43.6016 13.2852 43.5781 13.0918 43.5605 12.875C43.2148 13.25 42.8164 13.5693 42.3652 13.833C41.8262 14.1436 41.2168 14.2988 40.5371 14.2988C39.6699 14.2988 38.9521 14.0527 38.3838 13.5605C37.8213 13.0625 37.54 12.3594 37.54 11.4512C37.54 10.2734 37.9941 9.4209 38.9023 8.89355C39.4004 8.60645 40.1328 8.40137 41.0996 8.27832L41.9521 8.17285ZM58.915 4.20898C59.3369 4.20898 59.7529 4.29102 60.1631 4.45508C60.5732 4.61914 60.9453 4.90625 61.2793 5.31641C61.5488 5.65039 61.7305 6.06055 61.8242 6.54688C61.8828 6.86914 61.9121 7.34082 61.9121 7.96191L61.8945 14H59.3281V7.90039C59.3281 7.53711 59.2695 7.23828 59.1523 7.00391C58.9297 6.55859 58.5195 6.33594 57.9219 6.33594C57.2305 6.33594 56.7529 6.62305 56.4893 7.19727C56.3545 7.50195 56.2871 7.86816 56.2871 8.2959V14H53.7646V8.2959C53.7646 7.72754 53.7061 7.31445 53.5889 7.05664C53.3779 6.59375 52.9648 6.3623 52.3496 6.3623C51.6348 6.3623 51.1543 6.59375 50.9082 7.05664C50.7734 7.32031 50.7061 7.71289 50.7061 8.23438V14H48.166V4.4375H50.6006V5.83496C50.9111 5.33691 51.2041 4.98242 51.4795 4.77148C51.9658 4.39648 52.5957 4.20898 53.3691 4.20898C54.1016 4.20898 54.6934 4.37012 55.1445 4.69238C55.5078 4.99121 55.7832 5.375 55.9707 5.84375C56.2988 5.28125 56.7061 4.86816 57.1924 4.60449C57.708 4.34082 58.2822 4.20898 58.915 4.20898ZM69.4004 4.20898C70.6602 4.20898 71.6445 4.66309 72.3535 5.57129C73.0684 6.47949 73.4258 7.65137 73.4258 9.08691C73.4258 10.5752 73.0742 11.8086 72.3711 12.7871C71.668 13.7656 70.6865 14.2549 69.4268 14.2549C68.6357 14.2549 68 14.0967 67.5195 13.7803C67.2324 13.5928 66.9219 13.2646 66.5879 12.7959V14H64.1357V1.0625H66.6318V5.66797C66.9482 5.22266 67.2969 4.88281 67.6777 4.64844C68.1289 4.35547 68.7031 4.20898 69.4004 4.20898ZM68.7588 12.1895C69.4033 12.1895 69.9043 11.9287 70.2617 11.4072C70.6191 10.8857 70.7979 10.2002 70.7979 9.35059C70.7979 8.6709 70.71 8.1084 70.5342 7.66309C70.2002 6.81934 69.585 6.39746 68.6885 6.39746C67.7803 6.39746 67.1562 6.81055 66.8164 7.63672C66.6406 8.07617 66.5527 8.64453 66.5527 9.3418C66.5527 10.1621 66.7344 10.8418 67.0977 11.3809C67.4609 11.9199 68.0146 12.1895 68.7588 12.1895ZM77.7852 14H75.2803V1.04492H77.7852V14ZM84.0166 6.23047C83.4365 6.23047 82.9854 6.41211 82.6631 6.77539C82.3467 7.13867 82.1475 7.63086 82.0654 8.25195H85.959C85.918 7.58984 85.7158 7.08887 85.3525 6.74902C84.9951 6.40332 84.5498 6.23047 84.0166 6.23047ZM84.0166 4.16504C84.8135 4.16504 85.5312 4.31445 86.1699 4.61328C86.8086 4.91211 87.3359 5.38379 87.752 6.02832C88.127 6.59668 88.3701 7.25586 88.4814 8.00586C88.5459 8.44531 88.5723 9.07812 88.5605 9.9043H82.0039C82.0391 10.8652 82.3408 11.5391 82.9092 11.9258C83.2549 12.166 83.6709 12.2861 84.1572 12.2861C84.6729 12.2861 85.0918 12.1396 85.4141 11.8467C85.5898 11.6885 85.7451 11.4688 85.8799 11.1875H88.4375C88.373 11.7559 88.0771 12.333 87.5498 12.9189C86.7295 13.8506 85.5811 14.3164 84.1045 14.3164C82.8857 14.3164 81.8105 13.9238 80.8789 13.1387C79.9473 12.3535 79.4814 11.0762 79.4814 9.30664C79.4814 7.64844 79.9004 6.37695 80.7383 5.49219C81.582 4.60742 82.6748 4.16504 84.0166 4.16504ZM95.46 4.19141C95.5068 4.19141 95.5449 4.19434 95.5742 4.2002C95.6094 4.2002 95.6826 4.20312 95.7939 4.20898V6.77539C95.6357 6.75781 95.4951 6.74609 95.3721 6.74023C95.249 6.73438 95.1494 6.73145 95.0732 6.73145C94.0654 6.73145 93.3887 7.05957 93.043 7.71582C92.8496 8.08496 92.7529 8.65332 92.7529 9.4209V14H90.2305V4.41992H92.6211V6.08984C93.0078 5.45117 93.3447 5.01465 93.6318 4.78027C94.1006 4.3877 94.71 4.19141 95.46 4.19141ZM99.2217 10.9414C99.2744 11.3867 99.3887 11.7031 99.5645 11.8906C99.875 12.2246 100.449 12.3916 101.287 12.3916C101.779 12.3916 102.169 12.3184 102.456 12.1719C102.749 12.0254 102.896 11.8057 102.896 11.5127C102.896 11.2314 102.778 11.0176 102.544 10.8711C102.31 10.7246 101.439 10.4727 99.9336 10.1152C98.8496 9.8457 98.085 9.50879 97.6396 9.10449C97.1943 8.70605 96.9717 8.13184 96.9717 7.38184C96.9717 6.49707 97.3174 5.73828 98.0088 5.10547C98.7061 4.4668 99.6846 4.14746 100.944 4.14746C102.14 4.14746 103.112 4.3877 103.862 4.86816C104.618 5.34277 105.052 6.16602 105.163 7.33789H102.658C102.623 7.01562 102.532 6.76074 102.386 6.57324C102.11 6.2334 101.642 6.06348 100.979 6.06348C100.435 6.06348 100.045 6.14844 99.8105 6.31836C99.582 6.48828 99.4678 6.6875 99.4678 6.91602C99.4678 7.20312 99.5908 7.41113 99.8369 7.54004C100.083 7.6748 100.953 7.90625 102.447 8.23438C103.443 8.46875 104.19 8.82324 104.688 9.29785C105.181 9.77832 105.427 10.3789 105.427 11.0996C105.427 12.0488 105.072 12.8252 104.363 13.4287C103.66 14.0264 102.57 14.3252 101.094 14.3252C99.5879 14.3252 98.4746 14.0088 97.7539 13.376C97.0391 12.7373 96.6816 11.9258 96.6816 10.9414H99.2217ZM107.246 11.3809H109.909V14H107.246V11.3809ZM117.608 4.19141C118.599 4.19141 119.407 4.45215 120.034 4.97363C120.667 5.48926 120.983 6.34766 120.983 7.54883V14H118.417V8.17285C118.417 7.66895 118.35 7.28223 118.215 7.0127C117.969 6.52051 117.5 6.27441 116.809 6.27441C115.959 6.27441 115.376 6.63477 115.06 7.35547C114.896 7.73633 114.813 8.22266 114.813 8.81445V14H112.317V4.4375H114.734V5.83496C115.057 5.34277 115.361 4.98828 115.648 4.77148C116.164 4.38477 116.817 4.19141 117.608 4.19141ZM127.083 6.23047C126.503 6.23047 126.052 6.41211 125.729 6.77539C125.413 7.13867 125.214 7.63086 125.132 8.25195H129.025C128.984 7.58984 128.782 7.08887 128.419 6.74902C128.062 6.40332 127.616 6.23047 127.083 6.23047ZM127.083 4.16504C127.88 4.16504 128.598 4.31445 129.236 4.61328C129.875 4.91211 130.402 5.38379 130.818 6.02832C131.193 6.59668 131.437 7.25586 131.548 8.00586C131.612 8.44531 131.639 9.07812 131.627 9.9043H125.07C125.105 10.8652 125.407 11.5391 125.976 11.9258C126.321 12.166 126.737 12.2861 127.224 12.2861C127.739 12.2861 128.158 12.1396 128.48 11.8467C128.656 11.6885 128.812 11.4688 128.946 11.1875H131.504C131.439 11.7559 131.144 12.333 130.616 12.9189C129.796 13.8506 128.647 14.3164 127.171 14.3164C125.952 14.3164 124.877 13.9238 123.945 13.1387C123.014 12.3535 122.548 11.0762 122.548 9.30664C122.548 7.64844 122.967 6.37695 123.805 5.49219C124.648 4.60742 125.741 4.16504 127.083 4.16504ZM132.339 6.29199V4.50781H133.675V1.83594H136.153V4.50781H137.709V6.29199H136.153V11.3545C136.153 11.7471 136.203 11.9932 136.303 12.0928C136.402 12.1865 136.707 12.2334 137.217 12.2334C137.293 12.2334 137.372 12.2334 137.454 12.2334C137.542 12.2275 137.627 12.2217 137.709 12.2158V14.0879L136.522 14.1318C135.339 14.1729 134.53 13.9678 134.097 13.5166C133.815 13.2295 133.675 12.7871 133.675 12.1895V6.29199H132.339Z" fill="white"/>
</svg>
